<svg id="svg" xmlns="http://www.w3.org/2000/svg" xmlns:xlink="http://www.w3.org/1999/xlink" width="400" height="400" viewBox="0, 0, 400,400"><g id="svgg"><path id="path0" d="M178.862 5.838 C 102.814 22.369,65.714 116.829,111.467 177.430 L 118.113 186.232 114.262 187.987 C 112.143 188.952,107.880 191.946,104.788 194.640 C 101.696 197.334,96.917 200.696,94.167 202.111 C 88.834 204.856,69.915 218.341,59.583 226.761 C 51.306 233.507,51.262 238.704,59.424 245.650 C 64.617 250.069,75.291 259.575,95.187 277.501 C 105.306 286.618,108.563 295.288,105.607 305.235 C 100.476 322.500,104.487 343.542,116.120 360.391 C 120.881 367.287,120.065 370.146,110.573 379.811 C 105.538 384.938,105.444 392.288,110.371 395.739 C 114.715 398.781,189.741 399.617,197.392 396.708 C 200.147 395.660,203.170 395.654,205.895 396.690 C 211.200 398.707,292.421 395.606,296.887 393.216 C 302.243 390.349,300.966 381.079,294.181 373.569 L 288.362 367.128 292.991 360.647 C 300.491 350.148,302.272 342.195,301.256 323.753 C 300.371 307.690,300.445 307.255,305.171 300.773 C 312.826 290.273,315.155 284.062,314.050 277.088 C 313.089 271.020,316.126 259.181,326.875 227.087 C 329.035 220.641,329.944 215.005,329.264 212.293 C 328.111 207.702,303.512 180.659,297.260 177.109 L 293.636 175.052 300.789 158.776 C 337.155 76.028,266.082 -13.121,178.862 5.838 M224.618 23.893 C 268.814 35.372,299.977 79.580,293.463 121.560 C 285.600 172.241,244.745 206.122,195.744 202.599 C 178.195 201.337,176.347 202.385,173.468 215.233 C 171.446 224.253,165.003 242.478,159.177 255.650 L 155.050 264.981 147.525 261.325 C 138.607 256.992,138.764 258.143,144.889 242.030 C 162.679 195.227,162.498 197.283,149.734 187.076 C 109.100 154.580,98.844 109.690,122.421 67.530 C 136.122 43.031,152.340 30.383,179.167 23.275 C 194.930 19.098,206.779 19.259,224.618 23.893 M234.188 60.362 C 209.967 65.526,201.766 93.486,218.694 113.187 C 229.718 126.017,247.348 126.217,260.565 113.662 C 282.949 92.400,263.953 54.016,234.188 60.362 M154.389 63.311 C 117.926 74.792,125.898 127.150,163.714 124.553 C 181.970 123.300,191.667 113.099,191.667 95.147 C 191.667 73.482,172.924 57.476,154.389 63.311 M247.215 68.940 C 263.704 75.830,268.117 95.550,255.902 107.765 C 248.847 114.819,247.334 114.755,246.132 107.351 C 244.220 95.567,223.333 91.176,223.333 102.559 C 223.333 109.066,217.376 100.972,216.544 93.333 C 214.798 77.303,232.856 62.941,247.215 68.940 M172.826 73.260 C 182.761 79.318,187.403 91.842,183.345 101.639 C 180.778 107.835,179.149 107.967,176.341 102.206 C 170.340 89.896,153.333 94.489,153.333 108.420 L 153.333 116.894 148.308 113.315 C 124.465 96.338,147.896 58.059,172.826 73.260 M282.337 191.749 C 304.404 200.005,309.258 217.352,299.018 251.363 C 294.802 265.365,286.667 264.222,286.667 249.628 C 286.667 241.905,282.668 231.657,279.668 231.692 C 274.394 231.754,268.333 241.403,268.333 249.737 C 268.333 253.508,267.419 254.868,264.371 255.633 C 258.875 257.013,254.759 263.993,253.535 274.011 L 252.500 282.483 242.500 286.599 C 220.433 295.682,186.123 291.211,172.373 277.460 C 163.341 268.428,163.341 269.026,172.319 241.559 C 183.441 207.527,180.227 210.841,202.161 210.788 C 223.116 210.736,241.886 205.571,253.333 196.704 C 265.743 187.093,268.591 186.606,282.337 191.749 M147.982 205.000 C 148.307 210.067,147.127 215.744,144.344 222.500 L 140.225 232.500 131.138 232.085 C 116.897 231.435,106.487 243.418,113.523 252.363 C 115.461 254.827,116.774 256.990,116.440 257.171 C 116.106 257.352,113.811 259.281,111.339 261.457 L 106.844 265.414 98.839 259.507 C 76.270 242.854,75.060 236.978,91.667 224.674 C 131.362 195.264,147.005 189.799,147.982 205.000 M283.504 267.146 C 295.791 275.417,295.120 286.292,282.099 289.908 C 267.289 294.021,263.333 291.368,263.333 277.324 C 263.333 263.684,271.922 259.350,283.504 267.146 M143.522 274.583 C 157.748 281.805,160.040 285.883,150.844 287.608 C 131.751 291.190,111.820 280.084,120.952 270.952 C 124.965 266.940,130.091 267.765,143.522 274.583 M262.511 299.327 C 265.590 301.345,268.556 301.791,273.568 300.989 C 280.093 299.946,280.368 300.073,279.398 303.697 C 278.837 305.789,278.369 313.202,278.356 320.170 C 278.327 336.135,275.350 341.023,258.745 352.361 C 240.171 365.045,229.477 360.403,212.404 332.246 C 204.088 318.532,210.339 295.000,222.298 295.000 C 225.262 295.000,233.645 293.207,240.927 291.016 L 254.167 287.033 256.235 291.801 C 257.373 294.424,260.197 297.811,262.511 299.327 M186.720 300.038 C 201.900 310.847,202.873 340.010,188.459 352.138 C 159.808 376.247,126.528 355.351,122.201 310.537 L 121.207 300.240 136.854 301.088 C 149.953 301.798,153.992 301.379,161.667 298.513 C 172.302 294.542,179.627 294.988,186.720 300.038 M288.275 319.890 C 293.831 330.273,288.500 344.576,273.877 358.517 C 245.274 385.786,213.557 380.572,209.404 347.917 C 207.973 336.665,211.312 337.500,221.965 351.055 C 235.966 368.871,239.202 369.356,260.699 356.862 C 278.111 346.743,283.333 339.718,283.333 326.417 C 283.333 316.498,285.165 314.079,288.275 319.890 M134.827 354.133 C 149.338 373.093,172.048 373.402,192.277 354.914 C 201.935 346.087,202.279 346.077,204.102 354.580 C 207.205 369.048,164.863 379.997,141.388 370.797 C 138.061 369.493,124.642 348.734,121.481 340.000 L 119.973 335.833 123.737 340.196 C 125.806 342.596,130.797 348.868,134.827 354.133 " stroke="none" fill="#000000" fill-rule="evenodd"></path></g></svg>