<?xml version="1.0" standalone="no"?>
<!DOCTYPE svg PUBLIC "-//W3C//DTD SVG 20010904//EN"
 "http://www.w3.org/TR/2001/REC-SVG-20010904/DTD/svg10.dtd">
<svg version="1.0" xmlns="http://www.w3.org/2000/svg"
 width="240.000000pt" height="240.000000pt" viewBox="0 0 240.000000 240.000000"
 preserveAspectRatio="xMidYMid meet">

<g transform="translate(0.000000,240.000000) scale(0.100000,-0.100000)"
fill="#000000" stroke="none">
<path d="M1073 2365 c-82 -18 -136 -43 -238 -109 -172 -112 -265 -279 -281
-502 -10 -153 33 -310 115 -419 l40 -52 -23 -11 c-13 -6 -39 -24 -57 -40 -19
-16 -47 -36 -64 -45 -32 -16 -146 -97 -207 -148 -50 -40 -50 -71 -1 -113 31
-26 95 -83 214 -191 14 -13 38 -44 52 -68 26 -44 26 -45 11 -98 -31 -104 -7
-230 63 -331 25 -37 25 -38 8 -65 -10 -16 -29 -39 -42 -52 -30 -31 -30 -75 -1
-95 19 -13 61 -16 260 -16 130 0 248 4 262 10 17 6 35 6 51 0 32 -12 520 6
546 21 32 17 25 73 -16 118 l-35 38 28 39 c45 63 56 111 50 221 -6 97 -5 99
23 138 46 63 60 101 53 142 -5 37 13 108 77 300 13 39 19 73 15 89 -7 28 -155
190 -192 211 l-22 13 43 97 c55 125 69 196 61 298 -9 120 -53 260 -107 341
-143 213 -438 333 -686 279z m275 -108 c112 -29 169 -62 253 -146 81 -81 141
-195 159 -300 28 -166 -43 -357 -181 -487 -114 -106 -243 -151 -405 -140 -105
8 -116 2 -133 -75 -12 -55 -51 -164 -86 -243 l-25 -56 -45 22 c-25 12 -45 26
-45 30 0 5 13 43 29 86 107 281 106 268 29 330 -91 73 -122 108 -167 192 -100
186 -96 356 13 541 75 127 181 210 314 245 111 30 178 30 290 1z m346 -1007
c104 -39 148 -122 127 -240 -16 -97 -41 -171 -58 -177 -23 -9 -43 24 -43 69 0
47 -24 108 -42 108 -32 -1 -68 -58 -68 -108 0 -23 -5 -31 -24 -36 -33 -8 -57
-50 -65 -110 l-6 -51 -60 -25 c-77 -31 -227 -34 -318 -7 -64 20 -147 90 -147
125 0 19 80 269 99 312 12 24 14 25 124 25 97 1 122 4 192 29 44 16 96 41 115
56 74 57 92 60 174 30z m-806 -80 c2 -30 -5 -64 -22 -105 l-25 -60 -54 2 c-52
3 -56 1 -91 -37 -20 -22 -36 -44 -36 -49 0 -4 10 -20 21 -35 12 -15 20 -28 18
-29 -2 -1 -16 -13 -31 -26 l-27 -23 -48 35 c-135 100 -143 135 -43 209 168
124 251 169 305 165 28 -2 30 -5 33 -47z m813 -373 c19 -12 40 -35 47 -50 18
-38 -4 -72 -55 -86 -89 -25 -113 -9 -113 75 0 82 52 108 121 61z m-840 -44
c85 -44 99 -68 44 -79 -20 -3 -59 -4 -87 -2 -42 4 -57 11 -80 37 -32 36 -34
44 -12 65 24 24 55 19 135 -21z m714 -149 c19 -12 36 -15 66 -10 40 6 41 6 35
-16 -3 -13 -6 -57 -6 -99 0 -96 -18 -125 -118 -193 -100 -69 -119 -67 -194 15
-32 35 -70 83 -84 106 -22 37 -24 48 -18 107 8 82 31 116 78 116 18 0 68 11
112 24 l79 24 12 -29 c7 -16 24 -36 38 -45z m-455 -4 c47 -33 70 -88 70 -165
0 -100 -38 -153 -134 -190 -58 -22 -151 -17 -188 10 -73 55 -123 160 -135 282
l-6 62 94 -6 c79 -4 103 -1 149 16 64 24 108 21 150 -9z m610 -119 c16 -31 12
-98 -9 -139 -22 -42 -122 -142 -166 -165 -17 -8 -58 -21 -92 -27 -59 -12 -65
-11 -110 11 -56 28 -87 77 -97 152 -8 67 12 62 76 -19 53 -68 101 -99 135 -87
10 3 54 27 97 52 105 61 136 103 136 183 0 59 11 74 30 39z m-921 -206 c48
-62 88 -85 149 -85 71 0 137 27 196 81 30 27 57 46 59 42 3 -4 8 -23 12 -40
10 -48 -32 -87 -111 -103 -55 -12 -231 -8 -266 5 -20 8 -100 133 -119 185 l-9
25 22 -26 c13 -15 43 -52 67 -84z"/>
<path d="M1397 2035 c-91 -23 -141 -94 -135 -190 3 -52 9 -70 38 -108 54 -71
123 -93 198 -61 78 32 122 95 122 173 0 61 -13 97 -48 134 -51 54 -105 70
-175 52z m86 -49 c66 -27 109 -108 93 -173 -7 -27 -66 -93 -84 -93 -5 0 -12
16 -15 36 -8 49 -23 64 -64 64 -41 0 -73 -15 -73 -35 0 -39 -36 9 -41 55 -6
56 36 120 96 146 38 17 49 17 88 0z"/>
<path d="M926 2020 c-48 -15 -104 -60 -123 -98 -11 -23 -18 -59 -18 -94 0 -48
4 -62 31 -95 17 -21 46 -49 65 -61 30 -21 43 -23 101 -19 110 7 168 68 168
176 0 130 -112 226 -224 191z m111 -60 c60 -36 87 -111 63 -170 -15 -37 -25
-38 -42 -3 -18 38 -61 50 -104 29 -32 -15 -34 -19 -34 -67 l0 -50 -30 21 c-39
28 -60 69 -60 119 0 56 15 83 63 114 49 32 99 35 144 7z"/>
</g>
</svg>
