<svg xmlns="http://www.w3.org/2000/svg" viewBox="0 0 24 24"><title>i2</title>
  <path d="M11.238.156c-4.618 1.004-6.87 6.74-4.093 10.42l.404.534-.234.107c-.128.058-.387.24-.575.404s-.478.368-.645.453c-.324.167-1.473.986-2.1 1.497-.503.41-.505.725-.01 1.147.316.269.964.846 2.172 1.934.614.554.812 1.08.633 1.684-.312 1.049-.068 2.326.638 3.35.29.418.24.592-.337 1.179-.306.311-.311.757-.012.967.264.185 4.82.235 5.284.059a.726.726 0 0 1 .516-.001c.322.122 5.254-.066 5.526-.211.325-.174.247-.737-.165-1.193l-.353-.391.281-.394c.455-.637.564-1.12.502-2.24-.054-.976-.05-1.002.238-1.396.464-.637.606-1.014.539-1.438-.059-.368.126-1.087.778-3.036.132-.391.187-.734.146-.898-.07-.28-1.564-1.921-1.944-2.137l-.22-.125.434-.988C20.85 4.418 16.534-.995 11.238.156m2.778 1.097c2.684.697 4.576 3.381 4.18 5.93-.477 3.078-2.958 5.135-5.933 4.92-1.066-.076-1.178-.012-1.353.768-.123.548-.514 1.654-.868 2.454l-.25.567-.457-.222c-.542-.263-.532-.193-.16-1.172 1.08-2.842 1.069-2.717.294-3.337-2.467-1.973-3.09-4.699-1.659-7.259.832-1.488 1.817-2.256 3.446-2.687.957-.254 1.677-.244 2.76.037m.581 2.215c-1.47.313-1.969 2.011-.94 3.207.669.78 1.74.792 2.542.03 1.359-1.292.206-3.623-1.602-3.237m-4.845.179c-2.215.697-1.73 3.876.566 3.719 1.108-.076 1.697-.696 1.697-1.786 0-1.316-1.138-2.287-2.263-1.933m5.636.342c1.001.418 1.27 1.615.528 2.357-.429.429-.52.425-.594-.025-.116-.715-1.384-.982-1.384-.29 0 .394-.362-.097-.412-.561-.106-.974.99-1.846 1.862-1.481m-4.517.262c.603.368.885 1.128.639 1.723-.156.376-.255.384-.425.035-.365-.748-1.398-.469-1.398.377V6.9l-.305-.218c-1.447-1.03-.025-3.355 1.49-2.432m6.649 7.195c1.34.501 1.634 1.555 1.013 3.62-.256.85-.75.78-.75-.106 0-.468-.243-1.09-.425-1.089-.32.004-.689.59-.689 1.096 0 .23-.055.312-.24.358-.334.084-.584.508-.658 1.116l-.063.514-.607.25c-1.34.552-3.424.28-4.258-.555-.549-.548-.549-.512-.004-2.18.676-2.066.48-1.865 1.812-1.868 1.273-.003 2.413-.317 3.108-.855.753-.584.926-.613 1.76-.301m-8.158.805c.02.307-.052.652-.22 1.062l-.25.607-.553-.025c-.864-.04-1.496.688-1.07 1.232.118.15.198.28.178.291s-.16.129-.31.26l-.273.241-.486-.359c-1.37-1.01-1.444-1.368-.435-2.115 2.41-1.786 3.36-2.117 3.42-1.194m8.228 3.773c.746.502.706 1.163-.085 1.382-.9.25-1.14.089-1.14-.764 0-.828.522-1.091 1.225-.618m-8.5.452c.864.438 1.003.686.445.79-1.16.218-2.37-.456-1.815-1.01.244-.244.555-.194 1.37.22m7.226 1.502c.187.123.367.15.671.101.396-.063.413-.055.354.165-.034.127-.062.577-.063 1-.002.97-.183 1.266-1.191 1.955-1.128.77-1.777.488-2.814-1.222-.505-.833-.125-2.261.6-2.261.18 0 .69-.11 1.132-.242l.804-.242.126.29c.069.159.24.364.38.456m-4.602.043c.922.657.981 2.428.106 3.164-1.74 1.464-3.76.195-4.023-2.526l-.06-.625.95.051c.795.043 1.04.018 1.506-.156.646-.241 1.09-.214 1.521.092m6.167 1.206c.338.63.014 1.499-.874 2.345-1.737 1.656-3.663 1.34-3.915-.643-.087-.683.116-.633.763.19.85 1.082 1.047 1.112 2.352.353 1.057-.615 1.374-1.041 1.374-1.849 0-.602.112-.749.3-.396m-9.317 2.08c.88 1.15 2.26 1.17 3.488.047.587-.536.607-.537.718-.02.189.878-2.383 1.543-3.808.984-.202-.08-1.017-1.34-1.209-1.87l-.091-.253.228.265c.126.146.429.527.674.846"/>
</svg>
