<?xml version="1.0" encoding="UTF-8"?>
<!DOCTYPE svg PUBLIC "-//W3C//DTD SVG 1.1//EN" "http://www.w3.org/Graphics/SVG/1.1/DTD/svg11.dtd">
<svg xmlns="http://www.w3.org/2000/svg" version="1.1" width="240px" height="240px" style="shape-rendering:geometricPrecision; text-rendering:geometricPrecision; image-rendering:optimizeQuality; fill-rule:evenodd; clip-rule:evenodd" xmlns:xlink="http://www.w3.org/1999/xlink">
<g><path style="opacity:1" fill="#fefefe" d="M 112.5,1.5 C 140.448,0.723155 162.281,11.7232 178,34.5C 186.095,50.8236 188.095,67.8236 184,85.5C 181.356,91.7685 178.523,97.9352 175.5,104C 182.25,109.746 188.75,115.912 195,122.5C 196.257,124.513 197.091,126.679 197.5,129C 194.542,139.542 191.375,150.042 188,160.5C 187.785,163.856 187.785,167.189 188,170.5C 185.761,175.077 183.095,179.411 180,183.5C 180.478,191.136 180.478,198.803 180,206.5C 178.379,211.463 175.879,215.963 172.5,220C 175.04,222.205 177.207,224.705 179,227.5C 179.667,229.833 179.667,232.167 179,234.5C 178.25,235.126 177.416,235.626 176.5,236C 161.008,236.988 145.508,237.821 130,238.5C 126.667,238.577 123.5,237.91 120.5,236.5C 119.205,237.098 117.872,237.598 116.5,238C 108.333,238.167 100.167,238.333 92,238.5C 83.0699,238.64 74.2365,238.14 65.5,237C 63.5561,234.847 63.0561,232.347 64,229.5C 67.2181,226.742 69.7181,223.409 71.5,219.5C 61.1667,206.824 58.8334,192.824 64.5,177.5C 61.7399,170.915 57.4066,165.749 51.5,162C 45.2497,155.412 38.7497,149.246 32,143.5C 31.1316,139.328 32.6316,136.162 36.5,134C 47.56,125.942 58.8933,118.275 70.5,111C 56.5219,94.2554 51.6886,75.0887 56,53.5C 61.6577,31.0395 75.1577,15.2062 96.5,6C 101.874,4.16036 107.207,2.66036 112.5,1.5 Z M 113.5,11.5 C 149.888,11.5553 170.888,29.5553 176.5,65.5C 173.812,95.6776 157.812,114.178 128.5,121C 121.487,121.254 114.487,121.254 107.5,121C 106.667,121.833 105.833,122.667 105,123.5C 102.238,135.791 97.9044,147.458 92,158.5C 88.8817,157.029 86.0484,155.196 83.5,153C 87.5335,142.566 91.3668,132.066 95,121.5C 95.6667,119.833 95.6667,118.167 95,116.5C 62.9033,93.3498 57.2366,65.0165 78,31.5C 83.1879,25.8317 89.0213,20.9983 95.5,17C 101.531,14.8324 107.531,12.999 113.5,11.5 Z M 141.5,39.5 C 155.52,42.2488 160.02,49.9155 155,62.5C 153.261,64.7411 151.094,66.4078 148.5,67.5C 147.839,64.0084 146.506,60.8417 144.5,58C 141.833,57.3333 139.167,57.3333 136.5,58C 134.396,58.7908 133.063,60.2908 132.5,62.5C 127.156,54.6605 128.489,47.8271 136.5,42C 138.315,41.2432 139.981,40.4098 141.5,39.5 Z M 92.5,41.5 C 103.133,40.6362 109.133,45.4695 110.5,56C 110.468,58.8953 109.468,61.3953 107.5,63.5C 104.179,56.6723 99.1793,55.1723 92.5,59C 91.7069,62.4106 91.2069,65.9106 91,69.5C 82.4213,64.111 80.2546,56.7777 84.5,47.5C 86.9481,45.0306 89.6148,43.0306 92.5,41.5 Z M 158.5,112.5 C 172.792,112.466 180.792,119.466 182.5,133.5C 181.664,141.345 179.664,148.845 176.5,156C 175.216,156.684 174.049,156.517 173,155.5C 171.928,150.868 170.928,146.201 170,141.5C 168.397,137.915 166.231,137.582 163.5,140.5C 161.029,144.126 160.029,148.126 160.5,152.5C 156.91,152.544 154.41,154.211 153,157.5C 152.044,161.342 151.21,165.175 150.5,169C 137.151,175.539 123.485,176.206 109.5,171C 103.829,168.502 100.163,164.335 98.5,158.5C 101.768,147.695 105.435,137.029 109.5,126.5C 127.863,128.497 144.196,123.83 158.5,112.5 Z M 81.5,117.5 C 83.7925,117.244 85.9592,117.577 88,118.5C 88.6667,121.833 88.6667,125.167 88,128.5C 86.6667,131.833 85.3333,135.167 84,138.5C 80.2342,139.187 76.4008,139.354 72.5,139C 69.6,141.397 67.2667,144.23 65.5,147.5C 66.4411,149.772 67.7745,151.772 69.5,153.5C 67.5,155.167 65.5,156.833 63.5,158.5C 57.6019,155.107 52.4353,150.774 48,145.5C 47.3333,143.5 47.3333,141.5 48,139.5C 58.1866,130.502 69.3532,123.169 81.5,117.5 Z M 160.5,157.5 C 168.041,157.099 173.041,160.432 175.5,167.5C 172.958,172.526 168.792,174.859 163,174.5C 161.564,174.441 160.231,174.108 159,173.5C 156.597,167.757 157.097,162.424 160.5,157.5 Z M 73.5,160.5 C 79.9744,161.232 85.9744,163.399 91.5,167C 93.0368,168.11 93.7035,169.61 93.5,171.5C 87.4499,172.996 81.4499,172.829 75.5,171C 73.2589,169.261 71.5922,167.094 70.5,164.5C 71.1716,162.84 72.1716,161.507 73.5,160.5 Z M 151.5,171.5 C 154.07,179.452 159.403,182.119 167.5,179.5C 166.786,186.133 166.286,192.8 166,199.5C 160.779,207.547 153.612,213.214 144.5,216.5C 143.205,215.902 141.872,215.402 140.5,215C 134.572,209.076 129.406,202.576 125,195.5C 124.832,190.828 125.166,186.161 126,181.5C 126.785,179.714 127.951,178.214 129.5,177C 137.257,176.394 144.591,174.561 151.5,171.5 Z M 101.5,176.5 C 113.325,177.499 118.992,183.999 118.5,196C 118.443,206.738 113.109,213.405 102.5,216C 92.9014,218.47 85.4014,215.637 80,207.5C 74.6973,198.959 72.1973,189.625 72.5,179.5C 79.1442,180.443 85.8108,180.609 92.5,180C 95.7177,179.1 98.7177,177.933 101.5,176.5 Z M 169.5,189.5 C 170.496,189.414 171.329,189.748 172,190.5C 174.368,196.817 173.701,202.817 170,208.5C 162.768,218.414 153.101,224.081 141,225.5C 133.319,224.816 128.319,220.816 126,213.5C 125.545,210.146 125.045,206.813 124.5,203.5C 125.552,203.351 126.552,203.517 127.5,204C 131.167,208.333 134.833,212.667 138.5,217C 140.459,217.931 142.459,218.764 144.5,219.5C 152.303,216.192 159.47,211.858 166,206.5C 169.19,201.342 170.357,195.675 169.5,189.5 Z M 72.5,202.5 C 76.5926,207.769 80.926,212.935 85.5,218C 99.4449,222.798 110.945,219.298 120,207.5C 124.053,214.906 121.886,219.739 113.5,222C 103.848,223.877 94.181,223.877 84.5,222C 78.8445,216.523 74.8445,210.023 72.5,202.5 Z"/></g>
<g><path style="opacity:1" fill="#fdfdfd" d="M 143.5,34.5 C 160.023,38.5436 165.189,48.5436 159,64.5C 147.343,77.0178 136.676,76.3512 127,62.5C 122.537,47.0729 128.037,37.7396 143.5,34.5 Z M 141.5,39.5 C 139.981,40.4098 138.315,41.2432 136.5,42C 128.489,47.8271 127.156,54.6605 132.5,62.5C 133.063,60.2908 134.396,58.7908 136.5,58C 139.167,57.3333 141.833,57.3333 144.5,58C 146.506,60.8417 147.839,64.0084 148.5,67.5C 151.094,66.4078 153.261,64.7411 155,62.5C 160.02,49.9155 155.52,42.2488 141.5,39.5 Z"/></g>
<g><path style="opacity:1" fill="#fefefe" d="M 94.5,36.5 C 104.312,36.6481 110.812,41.3147 114,50.5C 116.177,68.3226 108.344,76.1559 90.5,74C 76.8853,66.8238 74.0519,56.6572 82,43.5C 85.7386,40.2185 89.9053,37.8852 94.5,36.5 Z M 92.5,41.5 C 89.6148,43.0306 86.9481,45.0306 84.5,47.5C 80.2546,56.7777 82.4213,64.111 91,69.5C 91.2069,65.9106 91.7069,62.4106 92.5,59C 99.1793,55.1723 104.179,56.6723 107.5,63.5C 109.468,61.3953 110.468,58.8953 110.5,56C 109.133,45.4695 103.133,40.6362 92.5,41.5 Z"/></g>
</svg>
